# File created by Blade
# Date/Time:  Thu Jan 22 16:10:22 2015
#---------------------------------------------------------
:version 1.10
:name HOM
:units
  mass 1.0
  length 1.000000
  angle deg
:documentation
     Acclaim Skeleton File
:root
   axis xyz
   order TX TY TZ RX RY RZ
   position 0.000000 0.000000 0.000000
   orientation 0 0 0
:bonedata
   begin
      id 1
      name RightUpLeg_dum
      direction -1.000000 0.000000 0.000000
      length 3.766986
      axis 0.0 0.0 0.0 xyz
   end
   begin
      id 2
      name LeftUpLeg_dum
      direction 1.000000 0.000000 0.000000
      length 3.766986
      axis 0.0 0.0 0.0 xyz
   end
   begin
      id 3
      name Spine_dum
      direction 0.000000 1.000000 0.000000
      length 7.779697
      axis 0.0 0.0 0.0 xyz
   end
   begin
      id 4
      name RightUpLeg
      direction 0.000000 -1.000000 0.000000
      length 18.017682
      axis 0.0 0.0 0.0 xyz
      dof rx ry rz
   end
   begin
      id 5
      name RightLeg
      direction 0.000000 -1.000000 0.000000
      length 16.881075
      axis 0.0 0.0 0.0 xyz
      dof rx ry rz
   end
   begin
      id 6
      name RightFoot
      direction 0.000000 -0.258819 0.965926
      length 5.770812
      axis 15.0 0.0 0.0 xyz
      dof rx ry rz
   end
   begin
      id 7
      name RightToeBase
      direction 0.000000 0.000000 1.000000
      length 2.952750
      axis 0.0 0.0 0.0 xyz
      dof rx ry rz
   end
   begin
      id 8
      name LeftUpLeg
      direction 0.000000 -1.000000 0.000000
      length 18.017682
      axis 0.0 0.0 0.0 xyz
      dof rx ry rz
   end
   begin
      id 9
      name LeftLeg
      direction 0.000000 -1.000000 0.000000
      length 16.881075
      axis 0.0 0.0 0.0 xyz
      dof rx ry rz
   end
   begin
      id 10
      name LeftFoot
      direction 0.000000 -0.258819 0.965926
      length 5.770812
      axis 15.0 0.0 0.0 xyz
      dof rx ry rz
   end
   begin
      id 11
      name LeftToeBase
      direction 0.000000 0.000000 1.000000
      length 2.952750
      axis 0.0 0.0 0.0 xyz
      dof rx ry rz
   end
   begin
      id 12
      name Spine
      direction 0.000000 1.000000 0.000000
      length 0.000000
      axis 0.0 0.0 0.0 xyz
      dof rx ry rz
   end
   begin
      id 13
      name Spine_dum1
      direction 0.000000 1.000000 0.000000
      length 10.941760
      axis 0.0 0.0 0.0 xyz
   end
   begin
      id 14
      name Spine_dum2
      direction 0.000000 1.000000 0.000000
      length 10.941760
      axis 0.0 0.0 0.0 xyz
   end
   begin
      id 15
      name Spine_dum3
      direction 0.000000 1.000000 0.000000
      length 16.646042
      axis 0.0 0.0 0.0 xyz
   end
   begin
      id 16
      name RightShoulder
      direction -1.000000 0.000000 0.000000
      length 7.708937
      axis 0.0 0.0 90.0 xyz
      dof rx ry rz
   end
   begin
      id 17
      name RightArm
      direction -1.000000 0.000000 0.000000
      length 11.521345
      axis 0.0 0.0 90.0 xyz
      dof rx ry rz
   end
   begin
      id 18
      name RightForeArm
      direction -1.000000 0.000000 0.000000
      length 10.175898
      axis 0.0 0.0 90.0 xyz
      dof ry rz rx
   end
   begin
      id 19
      name RightHand
      direction -1.000000 0.000000 0.000000
      length 0.000000
      axis 0.0 0.0 90.0 xyz
      dof rx ry rz
   end
   begin
      id 20
      name RightHand_dum1
      direction -1.000000 0.000000 0.000000
      length 3.937000
      axis 0.0 0.0 90.0 xyz
   end
   begin
      id 21
      name RightHand_dum2
      direction 0.000000 0.000000 0.000000
      length 0.000000
      axis 0.0 0.0 90.0 xyz
   end
   begin
      id 22
      name RightHandThumb1
      direction 0.000000 0.000000 1.000000
      length 3.937000
      axis 0.0 0.0 90.0 xyz
      dof rx rz ry
   end
   begin
      id 23
      name LeftShoulder
      direction 1.000000 0.000000 0.000000
      length 7.708937
      axis 0.0 0.0 -90.0 xyz
      dof rx ry rz
   end
   begin
      id 24
      name LeftArm
      direction 1.000000 0.000000 0.000000
      length 11.521345
      axis 0.0 0.0 -90.0 xyz
      dof rx ry rz
   end
   begin
      id 25
      name LeftForeArm
      direction 1.000000 0.000000 0.000000
      length 10.175898
      axis 0.0 0.0 -90.0 xyz
      dof ry rz rx
   end
   begin
      id 26
      name LeftHand
      direction 1.000000 0.000000 0.000000
      length 0.000000
      axis 0.0 0.0 -90.0 xyz
      dof rx ry rz
   end
   begin
      id 27
      name LeftHand_dum1
      direction 1.000000 0.000000 0.000000
      length 3.937000
      axis 0.0 0.0 -90.0 xyz
   end
   begin
      id 28
      name LeftHand_dum2
      direction 0.000000 0.000000 0.000000
      length 0.000000
      axis 0.0 0.0 -90.0 xyz
   end
   begin
      id 29
      name LeftHandThumb1
      direction 0.000000 0.000000 1.000000
      length 3.937000
      axis 0.0 0.0 -90.0 xyz
      dof rx rz ry
   end
   begin
      id 30
      name Head
      direction 0.000000 1.000000 0.000000
      length 4.527550
      axis 0.0 0.0 0.0 xyz
      dof rx ry rz
   end
:hierarchy
   begin
      root RightUpLeg_dum LeftUpLeg_dum Spine_dum
      RightUpLeg_dum RightUpLeg
      LeftUpLeg_dum LeftUpLeg
      Spine_dum Spine
      RightUpLeg RightLeg
      RightLeg RightFoot
      RightFoot RightToeBase
      LeftUpLeg LeftLeg
      LeftLeg LeftFoot
      LeftFoot LeftToeBase
      Spine Spine_dum1 Spine_dum2 Spine_dum3
      Spine_dum1 RightShoulder
      Spine_dum2 LeftShoulder
      Spine_dum3 Head
      RightShoulder RightArm
      RightArm RightForeArm
      RightForeArm RightHand
      RightHand RightHand_dum1 RightHand_dum2
      RightHand_dum2 RightHandThumb1
      LeftShoulder LeftArm
      LeftArm LeftForeArm
      LeftForeArm LeftHand
      LeftHand LeftHand_dum1 LeftHand_dum2
      LeftHand_dum2 LeftHandThumb1
   end

# File created by Blade
# Date/Time:  Thu Jan 22 16:10:14 2015
# Frame Rate: 120.000 fps
#------------------------------------------------------
:FULLY-SPECIFIED
:DEGREES
264
root -3.766037 36.258399 2.940514 -1.829275 -0.486011 11.715849
RightUpLeg 7.259861 -5.492366 -29.019689
RightLeg -5.367281 -0.000000 0.000000
RightFoot -7.893940 -17.553410 29.373899
RightToeBase 12.583408 -0.000000 -0.000000
LeftUpLeg -1.506240 4.670010 8.323588
LeftLeg 13.032550 -0.000000 -0.000000
LeftFoot -7.540913 9.742655 -26.324263
LeftToeBase 0.766425 -0.000000 -0.000000
Spine 13.466942 -6.455580 1.340033
RightShoulder -5.450168 -19.121088 -24.476031
RightArm 12.100722 17.189275 41.125778
RightForeArm 4.463527 -0.000000 37.159161
RightHand 3.539206 -0.000000 -6.083406
RightHandThumb1 -24.326973 -0.000000 -32.862282
LeftShoulder -29.405802 36.076699 1.770195
LeftArm 42.333529 -36.190960 -67.321045
LeftForeArm 35.331542 -0.000000 13.407411
LeftHand -17.936746 -0.000000 -6.819063
LeftHandThumb1 -26.253704 0.000000 33.147579
Head -2.017857 15.714068 -7.076112
265
root -3.768716 36.255316 2.951484 -1.763532 -0.331298 11.675448
RightUpLeg 7.358099 -5.576624 -28.980784
RightLeg -5.455951 -0.000000 0.000000
RightFoot -7.911249 -17.608684 29.418255
RightToeBase 12.709825 -0.000000 -0.000000
LeftUpLeg -1.246707 4.983957 8.934034
LeftLeg 11.998315 -0.000000 -0.000000
LeftFoot -6.381790 11.326853 -25.514666
LeftToeBase 0.666700 -0.000000 -0.000000
Spine 13.235328 -6.622676 1.325917
RightShoulder -5.438765 -19.014284 -24.467383
RightArm 12.026218 17.244973 41.018650
RightForeArm 4.465030 -0.000000 37.332435
RightHand 3.490189 0.000000 -5.967819
RightHandThumb1 -24.326973 -0.000000 -32.862282
LeftShoulder -29.302866 36.076909 1.979551
LeftArm 42.189027 -36.397488 -67.078079
LeftForeArm 35.216886 -0.000000 13.377821
LeftHand -17.945317 -0.000000 -6.762902
LeftHandThumb1 -26.253704 0.000000 33.147579
Head -1.946995 15.672621 -6.735101
266
root -3.762422 36.248229 2.964723 -1.707801 -0.161231 11.656230
RightUpLeg 7.493621 -5.656076 -28.981332
RightLeg -5.579499 -0.000000 0.000000
RightFoot -7.928217 -17.687280 29.462983
RightToeBase 12.866854 -0.000000 -0.000000
LeftUpLeg -0.984082 5.291724 9.515554
LeftLeg 10.968068 -0.000000 -0.000000
LeftFoot -5.125264 12.644785 -25.021295
LeftToeBase 0.423450 -0.000000 -0.000000
Spine 13.015698 -6.798485 1.261796
RightShoulder -5.442591 -18.927165 -24.406297
RightArm 11.964607 17.324795 40.867784
RightForeArm 4.448148 -0.000000 37.474205
RightHand 3.436410 0.000000 -5.955205
RightHandThumb1 -24.326973 -0.000000 -32.862282
LeftShoulder -29.220745 36.082786 2.195279
LeftArm 42.062311 -36.619836 -66.843142
LeftForeArm 35.006658 0.000000 13.392956
LeftHand -17.959627 -0.000000 -6.827782
LeftHandThumb1 -26.253704 0.000000 33.147579
Head -1.921540 15.675910 -6.398217
267
root -3.750368 36.237904 2.977680 -1.618073 0.054422 11.617624
RightUpLeg 7.642126 -5.786776 -28.972549
RightLeg -5.741962 -0.000000 0.000000
RightFoot -7.922739 -17.786731 29.557320
RightToeBase 13.039339 -0.000000 -0.000000
LeftUpLeg -0.794028 5.541671 10.106598
LeftLeg 9.984770 -0.000000 -0.000000
LeftFoot -3.796850 13.758093 -24.531862
LeftToeBase 0.315748 -0.000000 -0.000000
Spine 12.739161 -6.995885 1.226351
RightShoulder -5.470818 -18.915498 -24.339002
RightArm 11.934088 17.439444 40.740894
RightForeArm 4.503099 -0.000000 37.648440
RightHand 3.335070 -0.000000 -6.007907
RightHandThumb1 -24.326973 -0.000000 -32.862282
LeftShoulder -29.155374 36.138657 2.360793
LeftArm 42.083929 -36.881538 -66.653548
LeftForeArm 34.949585 -0.000000 13.307110
LeftHand -17.835913 -0.000000 -6.732802
LeftHandThumb1 -26.253704 0.000000 33.147579
Head -1.854136 15.606045 -6.127679
268
root -3.732057 36.223492 2.990975 -1.539891 0.269591 11.567556
RightUpLeg 7.794908 -5.919374 -28.961354
RightLeg -5.890469 -0.000000 0.000000
RightFoot -7.928889 -17.856396 29.645844
RightToeBase 13.177191 -0.000000 -0.000000
LeftUpLeg -0.599618 5.738773 10.705678
LeftLeg 9.017413 -0.000000 -0.000000
LeftFoot -2.387730 14.657427 -24.274935
LeftToeBase -0.082016 -0.000000 0.000000
Spine 12.489124 -7.181866 1.187870
RightShoulder -5.521354 -18.842143 -24.284373
RightArm 11.859183 17.474696 40.615993
RightForeArm 4.498275 0.000000 37.808969
RightHand 3.332420 -0.000000 -6.005650
RightHandThumb1 -24.326973 -0.000000 -32.862282
LeftShoulder -29.049713 36.111149 2.598811
LeftArm 41.993074 -37.132015 -66.455881
LeftForeArm 34.930715 -0.000000 13.357503
LeftHand -17.988602 0.000000 -6.590458
LeftHandThumb1 -26.253704 0.000000 33.147579
Head -1.844099 15.575250 -5.891681
269
root -3.709129 36.205950 3.003254 -1.463968 0.486276 11.468805
RightUpLeg 7.947115 -6.045525 -28.908253
RightLeg -6.029198 -0.000000 0.000000
RightFoot -7.933922 -17.980900 29.706180
RightToeBase 13.371805 -0.000000 -0.000000
LeftUpLeg -0.430435 5.961725 11.350942
LeftLeg 8.102402 -0.000000 -0.000000
LeftFoot -0.923405 15.320739 -24.110595
LeftToeBase -0.197634 -0.000000 0.000000
Spine 12.248793 -7.357465 1.216189
RightShoulder -5.590807 -18.822756 -24.238056
RightArm 11.810768 17.564300 40.499167
RightForeArm 4.521739 -0.000000 37.955884
RightHand 3.400967 -0.000000 -6.050964
RightHandThumb1 -24.326973 -0.000000 -32.862282
LeftShoulder -29.000114 36.161449 2.727758
LeftArm 42.023937 -37.349874 -66.220335
LeftForeArm 34.803762 -0.000000 13.352810
LeftHand -17.999893 -0.000000 -6.420912
LeftHandThumb1 -26.253704 0.000000 33.147579
Head -1.862326 15.517248 -5.728313
270
root -3.680440 36.185066 3.014294 -1.371868 0.708107 11.362188
RightUpLeg 8.083021 -6.216388 -28.862043
RightLeg -6.167762 -0.000000 0.000000
RightFoot -7.925939 -17.967434 29.874385
RightToeBase 13.325807 -0.000000 -0.000000
LeftUpLeg -0.310957 6.133148 11.981862
LeftLeg 7.248849 -0.000000 -0.000000
LeftFoot 0.574278 15.921726 -23.942061
LeftToeBase -0.384977 -0.000000 0.000000
Spine 11.993379 -7.546957 1.242944
RightShoulder -5.661778 -18.740194 -24.196727
RightArm 11.731662 17.650536 40.404912
RightForeArm 4.563791 0.000000 38.121620
RightHand 3.366220 0.000000 -6.031414
RightHandThumb1 -24.326973 -0.000000 -32.862282
LeftShoulder -28.861704 36.094821 2.966292
LeftArm 41.802478 -37.526340 -65.861977
LeftForeArm 34.590202 -0.000000 13.439011
LeftHand -18.063978 -0.000000 -6.182618
LeftHandThumb1 -26.253704 0.000000 33.147579
Head -1.895681 15.481122 -5.605329
271
root -3.643371 36.161459 3.030238 -1.316300 0.908276 11.249900
RightUpLeg 8.243011 -6.386892 -28.831312
RightLeg -6.296948 -0.000000 0.000000
RightFoot -7.915323 -17.950554 29.985100
RightToeBase 13.483696 -0.000000 -0.000000
LeftUpLeg -0.161719 6.316477 12.601545
LeftLeg 6.441544 -0.000000 -0.000000
LeftFoot 2.122004 16.378032 -23.719726
LeftToeBase -0.795061 -0.000000 0.000000
Spine 11.780070 -7.695640 1.269329
RightShoulder -5.730016 -18.779622 -24.149183
RightArm 11.702593 17.816379 40.327053
RightForeArm 4.679877 -0.000000 38.259388
RightHand 3.345092 0.000000 -6.078332
RightHandThumb1 -24.326973 -0.000000 -32.862282
LeftShoulder -28.820245 36.146242 3.103276
LeftArm 41.884518 -37.770831 -65.700369
LeftForeArm 34.416260 -0.000000 13.482644
LeftHand -18.163949 -0.000000 -5.970724
LeftHandThumb1 -26.253704 0.000000 33.147579
Head -1.949217 15.423482 -5.515743
272
root -3.604134 36.133372 3.042739 -1.257121 1.047382 11.079804
RightUpLeg 8.341625 -6.487835 -28.738014
RightLeg -6.391354 -0.000000 0.000000
RightFoot -7.920160 -17.954809 30.097207
RightToeBase 13.515473 -0.000000 -0.000000
LeftUpLeg -0.033083 6.534576 13.267158
LeftLeg 5.691168 -0.000000 -0.000000
LeftFoot 3.568351 16.759926 -23.761632
LeftToeBase -0.844650 -0.000000 0.000000
Spine 11.581992 -7.799810 1.361600
RightShoulder -5.776971 -18.689327 -24.156483
RightArm 11.581894 17.963904 40.286346
RightForeArm 4.667575 0.000000 38.395696
RightHand 3.467579 -0.000000 -6.066922
RightHandThumb1 -24.326973 -0.000000 -32.862282
LeftShoulder -28.799460 36.164940 3.222334
LeftArm 41.930632 -37.980326 -65.494573
LeftForeArm 34.181232 -0.000000 13.531225
LeftHand -18.216924 -0.000000 -5.776299
LeftHandThumb1 -26.253704 0.000000 33.147579
Head -2.053596 15.417262 -5.492262
273
root -3.555821 36.102692 3.056862 -1.182135 1.196377 10.924260
RightUpLeg 8.431061 -6.657640 -28.678188
RightLeg -6.479385 -0.000000 0.000000
RightFoot -7.914027 -17.904809 30.211313
RightToeBase 13.548921 -0.000000 -0.000000
LeftUpLeg 0.052049 6.697295 13.890668
LeftLeg 5.024239 -0.000000 -0.000000
LeftFoot 5.014622 17.057840 -23.848963
LeftToeBase -1.085133 -0.000000 0.000000
Spine 11.358186 -7.901290 1.434648
RightShoulder -5.834728 -18.689514 -24.139917
RightArm 11.513170 18.201137 40.248523
RightForeArm 4.634066 -0.000000 38.517493
RightHand 3.386297 -0.000000 -6.044827
RightHandThumb1 -24.326973 -0.000000 -32.862282
LeftShoulder -28.712978 36.135276 3.395494
LeftArm 41.781606 -38.120594 -65.132470
LeftForeArm 33.875779 -0.000000 13.672950
LeftHand -18.347342 -0.000000 -5.579407
LeftHandThumb1 -26.253704 0.000000 33.147579
Head -2.151244 15.427048 -5.469330
274
root -3.501225 36.069299 3.069946 -1.139267 1.305165 10.740345
RightUpLeg 8.510942 -6.793312 -28.601050
RightLeg -6.541541 -0.000000 0.000000
RightFoot -7.880837 -17.830132 30.327931
RightToeBase 13.516594 -0.000000 -0.000000
LeftUpLeg 0.161113 6.792706 14.511586
LeftLeg 4.414870 -0.000000 -0.000000
LeftFoot 6.391286 17.386658 -23.973381
LeftToeBase -1.335804 -0.000000 0.000000
Spine 11.192357 -7.956136 1.526198
RightShoulder -5.866946 -18.651786 -24.124978
RightArm 11.376660 18.380617 40.165969
RightForeArm 4.693701 -0.000000 38.604249
RightHand 3.442875 -0.000000 -6.100931
RightHandThumb1 -24.326973 -0.000000 -32.862282
LeftShoulder -28.613785 36.061501 3.601864
LeftArm 41.662067 -38.300972 -64.862267
LeftForeArm 33.513177 -0.000000 13.833367
LeftHand -18.391855 -0.000000 -5.407957
LeftHandThumb1 -26.253704 0.000000 33.147579
Head -2.293203 15.462898 -5.481962
275
root -3.447060 36.032018 3.077834 -1.066368 1.404541 10.494889
RightUpLeg 8.540178 -6.923351 -28.452400
RightLeg -6.588185 -0.000000 0.000000
RightFoot -7.871823 -17.772633 30.412023
RightToeBase 13.561566 -0.000000 -0.000000
LeftUpLeg 0.200105 6.892388 15.178202
LeftLeg 3.896735 -0.000000 -0.000000
LeftFoot 7.714265 17.620309 -24.298292
LeftToeBase -1.490769 -0.000000 0.000000
Spine 11.016813 -7.994738 1.681183
RightShoulder -5.913802 -18.607621 -24.111784
RightArm 11.242886 18.580269 40.101622
RightForeArm 4.744856 -0.000000 38.679900
RightHand 3.544523 -0.000000 -6.188689
RightHandThumb1 -24.326973 -0.000000 -32.862282
LeftShoulder -28.603058 36.052299 3.715966
LeftArm 41.678686 -38.435630 -64.591052
LeftForeArm 33.262236 0.000000 13.960927
LeftHand -18.422826 -0.000000 -5.389327
LeftHandThumb1 -26.253704 0.000000 33.147579
Head -2.491695 15.397412 -5.473099
